<?xml version="1.0" standalone="no"?>
<!DOCTYPE svg PUBLIC "-//W3C//DTD SVG 20010904//EN"
 "http://www.w3.org/TR/2001/REC-SVG-20010904/DTD/svg10.dtd">
<svg version="1.0" xmlns="http://www.w3.org/2000/svg"
 width="1024.000000pt" height="1024.000000pt" viewBox="0 0 1024.000000 1024.000000"
 preserveAspectRatio="xMidYMid meet">

<g transform="translate(0.000000,1024.000000) scale(0.100000,-0.100000)"
fill="#000000" stroke="none">
<path d="M6530 8382 c-22 -12 -43 -35 -57 -62 l-23 -44 0 -795 c0 -782 0 -795
21 -837 15 -31 32 -48 63 -63 42 -21 52 -21 1121 -21 1054 0 1080 0 1120 20
22 11 49 34 60 52 19 32 20 54 20 848 0 891 3 849 -58 894 -28 21 -30 21
-1130 24 -1052 2 -1104 1 -1137 -16z m736 -300 c21 -13 34 -52 28 -77 -13 -52
-29 -55 -277 -55 l-228 0 -26 26 c-20 20 -24 31 -19 57 11 56 18 57 275 57
130 0 241 -4 247 -8z m1298 -8 c9 -9 16 -32 16 -54 0 -73 21 -70 -562 -70
-505 0 -519 1 -538 20 -11 11 -20 33 -20 50 0 17 9 39 20 50 19 19 33 20 544
20 464 0 526 -2 540 -16z m-464 -364 c11 -11 20 -33 20 -50 0 -17 -9 -39 -20
-50 -20 -20 -33 -20 -663 -20 -722 0 -687 -4 -687 70 0 74 -35 70 687 70 630
0 643 0 663 -20z m-858 -357 c11 -10 18 -30 18 -54 0 -65 -13 -69 -255 -69
-241 0 -255 4 -255 67 0 71 6 73 253 73 191 0 223 -2 239 -17z m1284 9 c15
-10 34 -47 34 -67 0 -9 -11 -27 -25 -40 l-24 -25 -521 0 c-507 0 -521 1 -540
20 -11 11 -20 33 -20 50 0 17 9 39 20 50 19 19 33 20 543 20 287 0 527 -4 533
-8z m-456 -365 c20 -10 26 -21 28 -54 6 -77 41 -73 -675 -73 -620 0 -633 0
-653 20 -34 34 -22 98 20 113 8 3 294 6 635 6 479 1 626 -2 645 -12z"/>
<path d="M4690 8285 c-130 -27 -259 -85 -365 -165 -49 -36 -54 -37 -130 -37
-93 0 -135 -16 -166 -66 -15 -24 -18 -42 -14 -73 l6 -41 -39 -6 c-144 -24
-278 -178 -318 -367 -27 -125 -8 -378 41 -543 14 -48 20 -57 33 -51 38 16 140
16 196 0 67 -20 95 -44 90 -77 -3 -13 0 -31 5 -39 9 -13 14 -13 40 3 29 17 30
17 123 -24 51 -23 124 -54 161 -69 l68 -27 3 -79 c5 -132 66 -228 180 -284 78
-39 170 -44 256 -15 110 37 220 182 220 290 l0 35 80 0 80 0 1 -42 c1 -83 64
-193 142 -247 127 -87 293 -70 407 40 65 63 94 136 94 239 1 77 -2 92 -32 152
-56 114 -153 173 -287 173 -67 0 -89 -4 -135 -27 -74 -36 -135 -101 -165 -174
l-24 -59 -81 0 -81 0 -18 52 c-47 139 -177 222 -331 211 -113 -8 -219 -78
-265 -175 -9 -18 -20 -33 -25 -33 -4 0 -71 27 -148 60 -78 33 -145 60 -151 60
-6 0 7 18 30 41 41 41 110 142 147 214 54 108 135 436 115 468 -7 12 4 5 78
-51 201 -153 499 -250 817 -268 130 -7 303 13 402 46 30 10 56 18 57 17 0 -1
11 -85 23 -187 12 -102 26 -194 29 -204 5 -13 14 10 31 75 19 75 23 121 23
229 l1 135 48 35 c103 74 171 193 172 300 0 82 -17 132 -62 182 -69 76 -158
108 -304 108 -80 0 -139 20 -313 107 -256 128 -408 173 -580 172 -55 -1 -129
-7 -165 -14z m187 -1397 c114 -54 174 -190 138 -315 -57 -197 -272 -275 -430
-155 -61 46 -97 114 -103 191 -16 219 199 371 395 279z m800 0 c141 -66 199
-230 130 -370 -105 -214 -393 -208 -490 11 -24 55 -21 177 7 233 23 48 74 97
128 125 59 31 160 31 225 1z"/>
<path d="M4710 6715 c-47 -50 -34 -173 21 -190 55 -18 99 28 99 105 0 95 -66
142 -120 85z"/>
<path d="M5492 6723 c-21 -8 -42 -60 -42 -103 0 -96 66 -142 121 -84 20 21 24
36 24 86 0 53 -3 62 -28 84 -27 23 -48 28 -75 17z"/>
<path d="M2106 8240 c-283 -45 -525 -195 -674 -419 -103 -154 -138 -285 -129
-485 4 -99 10 -137 34 -208 180 -525 774 -778 1299 -552 l82 35 62 -31 c84
-42 210 -90 237 -90 29 0 63 33 63 61 0 11 -23 74 -51 139 l-51 117 49 61 c57
71 112 177 144 282 21 65 24 95 24 220 -1 167 -14 228 -75 355 -120 246 -375
439 -663 501 -89 19 -272 26 -351 14z m338 -522 c23 -33 20 -54 -23 -175 -21
-59 -69 -199 -106 -311 -77 -232 -89 -248 -151 -219 -26 13 -34 23 -34 43 0
35 209 652 227 670 22 22 69 17 87 -8z m-409 -103 c46 -45 38 -56 -113 -168
l-112 -84 115 -88 c63 -48 117 -96 120 -106 17 -51 -28 -86 -82 -64 -49 21
-301 213 -308 236 -14 44 4 66 132 160 220 159 209 154 248 114z m710 -93 c77
-58 146 -112 153 -120 21 -27 14 -70 -15 -96 -35 -31 -255 -191 -282 -206 -36
-19 -75 7 -79 51 -3 36 -1 38 116 125 l120 88 -114 84 c-62 47 -116 93 -120
104 -14 45 26 94 66 80 8 -2 78 -52 155 -110z"/>
<path d="M4616 7167 c-68 -25 -107 -67 -90 -95 15 -24 47 -26 102 -7 26 9 90
19 142 22 52 3 101 10 108 16 19 15 14 54 -10 71 -35 25 -178 21 -252 -7z"/>
<path d="M5471 7149 c-52 -10 -71 -24 -71 -54 0 -42 5 -43 285 -58 36 -2 40 0
43 24 7 61 -137 111 -257 88z"/>
<path d="M3767 6753 c-13 -13 -7 -41 11 -48 14 -5 15 -4 5 6 -20 20 -15 37 10
42 20 4 20 4 1 6 -11 0 -24 -2 -27 -6z"/>
<path d="M3830 6743 c8 -3 24 -10 35 -15 20 -9 20 -9 1 6 -11 9 -27 16 -35 15
-14 0 -14 -1 -1 -6z"/>
<path d="M3920 6685 c19 -19 36 -35 39 -35 3 0 -10 16 -29 35 -19 19 -36 35
-39 35 -3 0 10 -16 29 -35z"/>
<path d="M3870 6655 c13 -14 26 -25 28 -25 3 0 -5 11 -18 25 -13 14 -26 25
-28 25 -3 0 5 -11 18 -25z"/>
<path d="M3991 6554 c0 -11 3 -14 6 -6 3 7 2 16 -1 19 -3 4 -6 -2 -5 -13z"/>
<path d="M5170 6561 c0 -6 6 -8 13 -6 8 4 22 -21 41 -70 16 -42 31 -74 33 -71
2 2 -9 37 -24 77 -18 47 -35 75 -46 77 -9 2 -17 -1 -17 -7z"/>
<path d="M5171 6515 c-1 -6 14 -56 33 -110 19 -55 35 -95 35 -90 1 6 -14 56
-33 110 -19 55 -35 95 -35 90z"/>
<path d="M3985 6499 c-4 -6 -14 -8 -24 -4 -13 5 -14 4 -3 -6 10 -11 15 -10 29
4 10 9 14 17 11 17 -4 0 -10 -5 -13 -11z"/>
<path d="M5262 6395 c0 -5 6 -26 13 -45 7 -19 14 -28 14 -20 0 8 -6 29 -14 45
-7 17 -13 26 -13 20z"/>
<path d="M5293 6275 c0 -22 2 -30 4 -17 2 12 2 30 0 40 -3 9 -5 -1 -4 -23z"/>
<path d="M5242 6275 c0 -16 2 -22 5 -12 2 9 2 23 0 30 -3 6 -5 -1 -5 -18z"/>
<path d="M5219 6223 c-13 -16 -12 -17 4 -4 9 7 17 15 17 17 0 8 -8 3 -21 -13z"/>
<path d="M5275 6211 c-3 -11 -15 -23 -26 -26 -11 -4 -19 -9 -16 -11 2 -3 12
-2 21 2 18 7 41 42 33 51 -3 2 -8 -5 -12 -16z"/>
<path d="M5148 6213 c6 -2 18 -2 25 0 6 3 1 5 -13 5 -14 0 -19 -2 -12 -5z"/>
<path d="M5173 6163 c9 -2 25 -2 35 0 9 3 1 5 -18 5 -19 0 -27 -2 -17 -5z"/>
<path d="M4807 6109 c7 -7 15 -10 18 -7 3 3 -2 9 -12 12 -14 6 -15 5 -6 -5z"/>
<path d="M6764 6108 c-14 -4 -35 -15 -46 -25 -49 -44 -48 -30 -48 -713 0 -702
-3 -669 58 -715 27 -20 43 -20 1032 -20 l1005 0 31 22 c60 43 59 28 59 723 0
588 -1 637 -18 667 -38 70 27 66 -1065 67 -540 1 -994 -2 -1008 -6z m992 -333
c19 -30 11 -81 -16 -95 -11 -6 -163 -10 -388 -10 -357 0 -369 1 -387 20 -21
24 -24 72 -5 94 11 14 61 16 396 16 l384 0 16 -25z m824 6 c15 -29 12 -72 -7
-93 -15 -17 -38 -18 -315 -18 -285 0 -299 1 -318 20 -24 24 -26 67 -3 92 15
17 38 18 324 18 295 0 309 -1 319 -19z m-1216 -357 c26 -26 20 -79 -11 -104
-26 -20 -36 -21 -196 -18 -164 3 -169 4 -188 27 -23 28 -24 59 -3 89 15 21 20
22 199 22 154 0 186 -3 199 -16z m930 -6 c21 -30 20 -61 -3 -89 l-19 -24 -362
0 c-346 0 -362 1 -376 19 -19 26 -18 81 2 100 13 14 62 16 379 16 l364 0 15
-22z m-480 -360 c23 -32 20 -65 -9 -93 l-24 -25 -391 0 -391 0 -24 25 c-29 28
-32 61 -9 93 l15 22 409 0 409 0 15 -22z m734 10 c5 -7 11 -22 12 -33 10 -89
-8 -95 -288 -95 -121 0 -234 3 -251 6 -58 12 -77 76 -35 118 13 14 53 16 283
16 203 0 271 -3 279 -12z"/>
<path d="M4830 6086 c0 -2 8 -10 18 -17 15 -13 16 -12 3 4 -13 16 -21 21 -21
13z"/>
<path d="M4805 6030 c10 -11 20 -20 23 -20 3 0 -3 9 -13 20 -10 11 -20 20 -23
20 -3 0 3 -9 13 -20z"/>
<path d="M4910 6025 c0 -7 61 -37 66 -33 2 3 -12 12 -31 21 -19 9 -35 15 -35
12z"/>
<path d="M4850 5996 c0 -3 14 -12 30 -21 17 -9 30 -13 30 -11 0 3 -13 12 -30
21 -16 9 -30 13 -30 11z"/>
<path d="M5048 5973 c12 -2 30 -2 40 0 9 3 -1 5 -23 4 -22 0 -30 -2 -17 -4z"/>
<path d="M5169 5971 c9 -6 11 -16 7 -27 -6 -15 -4 -16 5 -7 14 14 5 43 -13 43
-10 0 -9 -3 1 -9z"/>
<path d="M4950 5940 c8 -5 20 -10 25 -10 6 0 3 5 -5 10 -8 5 -19 10 -25 10 -5
0 -3 -5 5 -10z"/>
<path d="M4998 5923 c7 -3 16 -2 19 1 4 3 -2 6 -13 5 -11 0 -14 -3 -6 -6z"/>
<path d="M5053 5913 c15 -2 39 -2 55 0 15 2 2 4 -28 4 -30 0 -43 -2 -27 -4z"/>
<path d="M4342 5738 c-7 -7 -12 -19 -11 -27 0 -10 4 -7 9 7 13 30 31 28 66 -9
16 -17 43 -40 59 -52 17 -11 3 5 -30 36 -63 59 -74 64 -93 45z"/>
<path d="M4340 5684 c0 -6 7 -19 16 -30 14 -18 14 -18 3 6 -14 31 -19 36 -19
24z"/>
<path d="M4380 5611 c5 -11 15 -23 21 -27 6 -3 3 5 -6 20 -20 30 -30 35 -15 7z"/>
<path d="M4530 5616 c0 -3 9 -10 20 -16 11 -6 20 -8 20 -6 0 3 -9 10 -20 16
-11 6 -20 8 -20 6z"/>
<path d="M4430 5546 c25 -28 100 -91 100 -84 0 2 -28 28 -62 58 -35 29 -52 41
-38 26z"/>
<path d="M4798 5503 c7 -3 16 -2 19 1 4 3 -2 6 -13 5 -11 0 -14 -3 -6 -6z"/>
<path d="M4848 5493 c7 -3 16 -2 19 1 4 3 -2 6 -13 5 -11 0 -14 -3 -6 -6z"/>
<path d="M3860 5483 c-61 -7 -311 -63 -435 -98 -204 -57 -459 -152 -593 -219
-273 -138 -500 -369 -737 -749 -314 -505 -647 -1292 -701 -1658 -59 -403 122
-696 489 -789 124 -31 376 -60 586 -68 l194 -7 -2 -80 c-1 -44 2 -86 7 -93 7
-10 575 -12 2815 -12 2544 -1 2809 1 2837 15 59 31 29 -52 446 1209 184 559
307 945 307 968 0 50 -25 85 -76 109 -41 18 -88 19 -1329 19 l-1286 0 -7 53
c-13 94 -73 322 -114 431 -104 276 -253 474 -461 610 -162 107 -456 222 -675
266 -33 6 -68 14 -78 17 -16 4 -17 0 -11 -44 7 -58 -10 -151 -38 -206 -45 -89
-150 -174 -256 -207 -187 -58 -441 -11 -630 116 -90 62 -134 107 -178 186 -26
48 -29 62 -29 146 0 50 -2 91 -5 90 -3 0 -21 -3 -40 -5z m601 -2686 c205 -102
513 -377 581 -515 47 -99 20 -153 -81 -160 l-59 -4 -18 -89 -18 -89 -393 0
c-250 0 -393 4 -393 10 0 5 -42 41 -94 80 l-94 71 -45 -43 c-25 -24 -73 -59
-108 -78 -58 -31 -72 -35 -144 -35 -64 0 -89 5 -125 23 -211 110 -234 400 -46
588 63 63 137 101 282 148 347 111 460 136 585 133 88 -2 102 -6 170 -40z"/>
<path d="M4407 2623 c-17 -17 2 -41 124 -160 72 -70 163 -166 202 -213 77 -92
112 -131 87 -95 -44 62 -165 196 -279 310 -72 71 -131 135 -131 142 0 20 31
15 59 -9 l26 -23 -24 28 c-23 26 -50 35 -64 20z"/>
<path d="M4630 2445 c174 -181 168 -176 132 -130 -17 22 -84 92 -148 155
l-118 115 134 -140z"/>
<path d="M4169 2504 c-11 -13 -3 -24 52 -77 l64 -62 -60 63 c-57 60 -59 64
-41 78 11 8 15 14 9 14 -6 0 -16 -7 -24 -16z"/>
<path d="M4210 2506 c0 -2 8 -10 18 -17 15 -13 16 -12 3 4 -13 16 -21 21 -21
13z"/>
<path d="M4280 2445 c19 -19 36 -35 39 -35 3 0 -10 16 -29 35 -19 19 -36 35
-39 35 -3 0 10 -16 29 -35z"/>
<path d="M4480 2255 c85 -88 157 -162 159 -165 2 -3 -1 4 -7 15 -6 11 -77 85
-159 165 l-148 145 155 -160z"/>
<path d="M3945 2390 c-3 -6 1 -7 9 -4 18 7 21 14 7 14 -6 0 -13 -4 -16 -10z"/>
<path d="M3990 2378 c24 -25 180 -150 180 -145 0 5 -148 128 -180 151 -13 9
-13 8 0 -6z"/>
<path d="M3941 2353 c5 -11 125 -114 189 -162 l45 -33 -45 39 c-24 21 -78 67
-119 102 -40 35 -72 60 -70 54z"/>
<path d="M4437 2220 c129 -133 183 -206 183 -244 0 -8 4 -17 9 -21 13 -7 -1
41 -24 86 -10 19 -83 99 -163 179 l-146 145 141 -145z"/>
<path d="M4832 2208 c24 -36 45 -63 47 -61 5 4 -68 111 -81 119 -5 3 10 -23
34 -58z"/>
<path d="M4252 2161 c57 -53 86 -90 112 -143 20 -39 36 -65 36 -59 0 47 -99
178 -185 244 -22 17 -5 -2 37 -42z"/>
<path d="M4230 2105 c30 -30 57 -55 59 -55 3 0 -19 25 -49 55 -30 30 -57 55
-59 55 -3 0 19 -25 49 -55z"/>
<path d="M4847 2095 c9 -19 18 -33 21 -31 4 5 -26 66 -33 66 -3 0 3 -16 12
-35z"/>
<path d="M4651 2060 c14 -31 19 -36 19 -24 0 6 -7 19 -16 30 -14 18 -14 18 -3
-6z"/>
<path d="M4670 1999 c0 -13 5 -31 10 -39 7 -11 8 -5 4 20 -8 43 -14 51 -14 19z"/>
<path d="M4322 1979 c6 -16 12 -28 14 -26 5 5 -13 57 -20 57 -3 0 0 -14 6 -31z"/>
<path d="M4913 5483 c9 -2 23 -2 30 0 6 3 -1 5 -18 5 -16 0 -22 -2 -12 -5z"/>
<path d="M4546 5449 c8 -14 144 -79 164 -79 8 0 -11 11 -42 24 -31 13 -73 33
-93 45 -20 11 -33 16 -29 10z"/>
<path d="M4738 5363 c6 -2 18 -2 25 0 6 3 1 5 -13 5 -14 0 -19 -2 -12 -5z"/>
<path d="M4933 5363 c9 -2 23 -2 30 0 6 3 -1 5 -18 5 -16 0 -22 -2 -12 -5z"/>
<path d="M4813 5353 c15 -2 39 -2 55 0 15 2 2 4 -28 4 -30 0 -43 -2 -27 -4z"/>
</g>
</svg>
